<mxfile host="app.diagrams.net" modified="2023-04-07T16:36:57.923Z" agent="Mozilla/5.0 (Windows NT 10.0; Win64; x64) AppleWebKit/537.36 (KHTML, like Gecko) Chrome/111.0.0.0 Safari/537.36" etag="MmBuZQfavi8dvU163oYS" version="21.1.4" type="device">
  <diagram name="Trang-1" id="1N4zalZ8wVTiFNEx1tSR">
    <mxGraphModel dx="794" dy="462" grid="1" gridSize="10" guides="1" tooltips="1" connect="1" arrows="1" fold="1" page="1" pageScale="1" pageWidth="827" pageHeight="1169" math="0" shadow="0">
      <root>
        <mxCell id="0" />
        <mxCell id="1" parent="0" />
        <mxCell id="V7ttUtFLJmJcMLGhUj04-1" value="search store" style="rounded=1;whiteSpace=wrap;html=1;" vertex="1" parent="1">
          <mxGeometry x="209" y="510" width="70" height="30" as="geometry" />
        </mxCell>
        <mxCell id="V7ttUtFLJmJcMLGhUj04-2" value="Browse store" style="rounded=1;whiteSpace=wrap;html=1;" vertex="1" parent="1">
          <mxGeometry x="209" y="620" width="70" height="30" as="geometry" />
        </mxCell>
        <mxCell id="V7ttUtFLJmJcMLGhUj04-3" value="View item" style="rounded=1;whiteSpace=wrap;html=1;" vertex="1" parent="1">
          <mxGeometry x="349" y="565" width="70" height="30" as="geometry" />
        </mxCell>
        <mxCell id="V7ttUtFLJmJcMLGhUj04-4" style="edgeStyle=orthogonalEdgeStyle;rounded=0;orthogonalLoop=1;jettySize=auto;html=1;entryX=0.5;entryY=0;entryDx=0;entryDy=0;" edge="1" parent="1" source="V7ttUtFLJmJcMLGhUj04-5" target="V7ttUtFLJmJcMLGhUj04-3">
          <mxGeometry relative="1" as="geometry" />
        </mxCell>
        <mxCell id="V7ttUtFLJmJcMLGhUj04-5" value="" style="rhombus;whiteSpace=wrap;html=1;" vertex="1" parent="1">
          <mxGeometry x="310" y="515" width="20" height="20" as="geometry" />
        </mxCell>
        <mxCell id="V7ttUtFLJmJcMLGhUj04-6" value="" style="endArrow=classic;html=1;rounded=0;exitX=1;exitY=0.5;exitDx=0;exitDy=0;entryX=0.5;entryY=1;entryDx=0;entryDy=0;" edge="1" parent="1" source="V7ttUtFLJmJcMLGhUj04-2" target="V7ttUtFLJmJcMLGhUj04-3">
          <mxGeometry relative="1" as="geometry">
            <mxPoint x="239" y="590" as="sourcePoint" />
            <mxPoint x="380" y="600" as="targetPoint" />
            <Array as="points">
              <mxPoint x="384" y="635" />
            </Array>
          </mxGeometry>
        </mxCell>
        <mxCell id="V7ttUtFLJmJcMLGhUj04-7" value="Found" style="edgeLabel;resizable=0;html=1;align=center;verticalAlign=middle;" connectable="0" vertex="1" parent="V7ttUtFLJmJcMLGhUj04-6">
          <mxGeometry relative="1" as="geometry" />
        </mxCell>
        <mxCell id="V7ttUtFLJmJcMLGhUj04-8" value="" style="edgeStyle=orthogonalEdgeStyle;rounded=0;orthogonalLoop=1;jettySize=auto;html=1;" edge="1" parent="1" source="V7ttUtFLJmJcMLGhUj04-9" target="V7ttUtFLJmJcMLGhUj04-3">
          <mxGeometry relative="1" as="geometry" />
        </mxCell>
        <mxCell id="V7ttUtFLJmJcMLGhUj04-9" value="" style="rhombus;whiteSpace=wrap;html=1;" vertex="1" parent="1">
          <mxGeometry x="439" y="570" width="20" height="20" as="geometry" />
        </mxCell>
        <mxCell id="V7ttUtFLJmJcMLGhUj04-10" value="" style="endArrow=classic;html=1;rounded=0;exitX=0.5;exitY=0;exitDx=0;exitDy=0;entryX=0.5;entryY=0;entryDx=0;entryDy=0;" edge="1" parent="1" source="V7ttUtFLJmJcMLGhUj04-9" target="V7ttUtFLJmJcMLGhUj04-1">
          <mxGeometry width="50" height="50" relative="1" as="geometry">
            <mxPoint x="339" y="610" as="sourcePoint" />
            <mxPoint x="389" y="560" as="targetPoint" />
            <Array as="points">
              <mxPoint x="449" y="500" />
              <mxPoint x="244" y="500" />
            </Array>
          </mxGeometry>
        </mxCell>
        <mxCell id="V7ttUtFLJmJcMLGhUj04-11" value="" style="endArrow=classic;html=1;rounded=0;entryX=0.5;entryY=1;entryDx=0;entryDy=0;exitX=0.5;exitY=1;exitDx=0;exitDy=0;" edge="1" parent="1" source="V7ttUtFLJmJcMLGhUj04-9" target="V7ttUtFLJmJcMLGhUj04-2">
          <mxGeometry width="50" height="50" relative="1" as="geometry">
            <mxPoint x="259" y="650" as="sourcePoint" />
            <mxPoint x="309" y="600" as="targetPoint" />
            <Array as="points">
              <mxPoint x="449" y="660" />
              <mxPoint x="244" y="660" />
            </Array>
          </mxGeometry>
        </mxCell>
        <mxCell id="V7ttUtFLJmJcMLGhUj04-12" value="Buy product" style="rounded=1;whiteSpace=wrap;html=1;" vertex="1" parent="1">
          <mxGeometry x="500" y="620" width="70" height="30" as="geometry" />
        </mxCell>
        <mxCell id="V7ttUtFLJmJcMLGhUj04-13" value="Add to cart" style="rounded=1;whiteSpace=wrap;html=1;" vertex="1" parent="1">
          <mxGeometry x="493.5" y="510" width="70" height="30" as="geometry" />
        </mxCell>
        <mxCell id="V7ttUtFLJmJcMLGhUj04-14" value="enter information" style="rounded=1;whiteSpace=wrap;html=1;" vertex="1" parent="1">
          <mxGeometry x="618.5" y="620" width="70" height="30" as="geometry" />
        </mxCell>
        <mxCell id="V7ttUtFLJmJcMLGhUj04-15" value="&amp;nbsp;payment method" style="rounded=1;whiteSpace=wrap;html=1;" vertex="1" parent="1">
          <mxGeometry x="618.5" y="670" width="70" height="30" as="geometry" />
        </mxCell>
        <mxCell id="V7ttUtFLJmJcMLGhUj04-16" value="Check out" style="rounded=1;whiteSpace=wrap;html=1;" vertex="1" parent="1">
          <mxGeometry x="618.5" y="760" width="70" height="30" as="geometry" />
        </mxCell>
        <mxCell id="V7ttUtFLJmJcMLGhUj04-17" value="" style="ellipse;html=1;shape=endState;fillColor=#000000;strokeColor=#ff0000;" vertex="1" parent="1">
          <mxGeometry x="714.5" y="760" width="31" height="30" as="geometry" />
        </mxCell>
        <mxCell id="V7ttUtFLJmJcMLGhUj04-18" value="" style="endArrow=classic;html=1;rounded=0;entryX=0;entryY=0.5;entryDx=0;entryDy=0;exitX=1;exitY=0.5;exitDx=0;exitDy=0;" edge="1" parent="1" source="V7ttUtFLJmJcMLGhUj04-16" target="V7ttUtFLJmJcMLGhUj04-17">
          <mxGeometry width="50" height="50" relative="1" as="geometry">
            <mxPoint x="553.5" y="700" as="sourcePoint" />
            <mxPoint x="603.5" y="650" as="targetPoint" />
          </mxGeometry>
        </mxCell>
        <mxCell id="V7ttUtFLJmJcMLGhUj04-19" value="" style="rhombus;whiteSpace=wrap;html=1;" vertex="1" parent="1">
          <mxGeometry x="643.5" y="730" width="20" height="20" as="geometry" />
        </mxCell>
        <mxCell id="V7ttUtFLJmJcMLGhUj04-20" value="" style="endArrow=classic;html=1;rounded=0;exitX=0;exitY=0.5;exitDx=0;exitDy=0;" edge="1" parent="1" source="V7ttUtFLJmJcMLGhUj04-19" target="V7ttUtFLJmJcMLGhUj04-102">
          <mxGeometry width="50" height="50" relative="1" as="geometry">
            <mxPoint x="279" y="710" as="sourcePoint" />
            <mxPoint x="169" y="640" as="targetPoint" />
            <Array as="points">
              <mxPoint x="160" y="740" />
            </Array>
          </mxGeometry>
        </mxCell>
        <mxCell id="V7ttUtFLJmJcMLGhUj04-21" value="View cart" style="rounded=1;whiteSpace=wrap;html=1;" vertex="1" parent="1">
          <mxGeometry x="578" y="510" width="71" height="30" as="geometry" />
        </mxCell>
        <mxCell id="V7ttUtFLJmJcMLGhUj04-22" value="" style="endArrow=classic;html=1;rounded=0;exitX=1;exitY=0.5;exitDx=0;exitDy=0;entryX=0;entryY=0.5;entryDx=0;entryDy=0;" edge="1" parent="1" source="V7ttUtFLJmJcMLGhUj04-13" target="V7ttUtFLJmJcMLGhUj04-21">
          <mxGeometry width="50" height="50" relative="1" as="geometry">
            <mxPoint x="449" y="630" as="sourcePoint" />
            <mxPoint x="499" y="580" as="targetPoint" />
          </mxGeometry>
        </mxCell>
        <mxCell id="V7ttUtFLJmJcMLGhUj04-23" value="" style="endArrow=classic;html=1;rounded=0;exitX=1;exitY=0.5;exitDx=0;exitDy=0;" edge="1" parent="1" source="V7ttUtFLJmJcMLGhUj04-21">
          <mxGeometry width="50" height="50" relative="1" as="geometry">
            <mxPoint x="449" y="630" as="sourcePoint" />
            <mxPoint x="660" y="525" as="targetPoint" />
          </mxGeometry>
        </mxCell>
        <mxCell id="V7ttUtFLJmJcMLGhUj04-24" value="update&amp;nbsp;" style="rounded=1;whiteSpace=wrap;html=1;" vertex="1" parent="1">
          <mxGeometry x="659" y="510" width="70" height="30" as="geometry" />
        </mxCell>
        <mxCell id="V7ttUtFLJmJcMLGhUj04-25" value="" style="html=1;verticalAlign=bottom;startArrow=circle;startFill=1;endArrow=open;startSize=6;endSize=8;edgeStyle=elbowEdgeStyle;elbow=vertical;curved=0;rounded=0;entryX=0;entryY=0.5;entryDx=0;entryDy=0;" edge="1" parent="1">
          <mxGeometry width="80" relative="1" as="geometry">
            <mxPoint x="118.5" y="330" as="sourcePoint" />
            <mxPoint x="153.5" y="325" as="targetPoint" />
            <Array as="points">
              <mxPoint x="138.5" y="325" />
            </Array>
          </mxGeometry>
        </mxCell>
        <mxCell id="V7ttUtFLJmJcMLGhUj04-26" value="search store" style="rounded=1;whiteSpace=wrap;html=1;" vertex="1" parent="1">
          <mxGeometry x="208" y="270" width="70" height="30" as="geometry" />
        </mxCell>
        <mxCell id="V7ttUtFLJmJcMLGhUj04-27" value="" style="endArrow=classic;html=1;rounded=0;exitX=0.5;exitY=0;exitDx=0;exitDy=0;entryX=0.5;entryY=1;entryDx=0;entryDy=0;" edge="1" parent="1" source="V7ttUtFLJmJcMLGhUj04-78" target="V7ttUtFLJmJcMLGhUj04-26">
          <mxGeometry width="50" height="50" relative="1" as="geometry">
            <mxPoint x="178" y="320" as="sourcePoint" />
            <mxPoint x="358" y="460" as="targetPoint" />
          </mxGeometry>
        </mxCell>
        <mxCell id="V7ttUtFLJmJcMLGhUj04-28" value="" style="rhombus;whiteSpace=wrap;html=1;" vertex="1" parent="1">
          <mxGeometry x="328" y="275" width="20" height="20" as="geometry" />
        </mxCell>
        <mxCell id="V7ttUtFLJmJcMLGhUj04-29" value="" style="endArrow=classic;html=1;rounded=0;exitX=1;exitY=0.5;exitDx=0;exitDy=0;" edge="1" parent="1" source="V7ttUtFLJmJcMLGhUj04-26" target="V7ttUtFLJmJcMLGhUj04-28">
          <mxGeometry width="50" height="50" relative="1" as="geometry">
            <mxPoint x="248" y="440" as="sourcePoint" />
            <mxPoint x="298" y="390" as="targetPoint" />
          </mxGeometry>
        </mxCell>
        <mxCell id="V7ttUtFLJmJcMLGhUj04-30" value="" style="endArrow=classic;html=1;rounded=0;exitX=0.5;exitY=1;exitDx=0;exitDy=0;entryX=1;entryY=0.5;entryDx=0;entryDy=0;" edge="1" parent="1" source="V7ttUtFLJmJcMLGhUj04-28" target="V7ttUtFLJmJcMLGhUj04-78">
          <mxGeometry relative="1" as="geometry">
            <mxPoint x="228" y="420" as="sourcePoint" />
            <mxPoint x="328.5" y="380" as="targetPoint" />
            <Array as="points">
              <mxPoint x="338.5" y="360" />
              <mxPoint x="328.5" y="355" />
            </Array>
          </mxGeometry>
        </mxCell>
        <mxCell id="V7ttUtFLJmJcMLGhUj04-31" value="NO" style="edgeLabel;resizable=0;html=1;align=center;verticalAlign=middle;" connectable="0" vertex="1" parent="V7ttUtFLJmJcMLGhUj04-30">
          <mxGeometry relative="1" as="geometry" />
        </mxCell>
        <mxCell id="V7ttUtFLJmJcMLGhUj04-32" value="" style="endArrow=classic;html=1;rounded=0;exitX=1;exitY=0.5;exitDx=0;exitDy=0;entryX=0.5;entryY=0;entryDx=0;entryDy=0;" edge="1" parent="1" source="V7ttUtFLJmJcMLGhUj04-28" target="V7ttUtFLJmJcMLGhUj04-34">
          <mxGeometry relative="1" as="geometry">
            <mxPoint x="328" y="430" as="sourcePoint" />
            <mxPoint x="373.5" y="330" as="targetPoint" />
            <Array as="points">
              <mxPoint x="432.5" y="285" />
            </Array>
          </mxGeometry>
        </mxCell>
        <mxCell id="V7ttUtFLJmJcMLGhUj04-33" value="Yes" style="edgeLabel;resizable=0;html=1;align=center;verticalAlign=middle;" connectable="0" vertex="1" parent="V7ttUtFLJmJcMLGhUj04-32">
          <mxGeometry relative="1" as="geometry">
            <mxPoint x="-1" y="-2" as="offset" />
          </mxGeometry>
        </mxCell>
        <mxCell id="V7ttUtFLJmJcMLGhUj04-34" value="View item" style="rounded=1;whiteSpace=wrap;html=1;" vertex="1" parent="1">
          <mxGeometry x="397" y="325" width="70" height="30" as="geometry" />
        </mxCell>
        <mxCell id="V7ttUtFLJmJcMLGhUj04-35" value="" style="rhombus;whiteSpace=wrap;html=1;" vertex="1" parent="1">
          <mxGeometry x="502" y="330" width="20" height="20" as="geometry" />
        </mxCell>
        <mxCell id="V7ttUtFLJmJcMLGhUj04-36" value="" style="endArrow=classic;html=1;rounded=0;exitX=1;exitY=0.5;exitDx=0;exitDy=0;entryX=0;entryY=0.5;entryDx=0;entryDy=0;" edge="1" parent="1" source="V7ttUtFLJmJcMLGhUj04-34" target="V7ttUtFLJmJcMLGhUj04-35">
          <mxGeometry width="50" height="50" relative="1" as="geometry">
            <mxPoint x="358" y="310" as="sourcePoint" />
            <mxPoint x="408" y="260" as="targetPoint" />
          </mxGeometry>
        </mxCell>
        <mxCell id="V7ttUtFLJmJcMLGhUj04-37" value="" style="endArrow=classic;html=1;rounded=0;exitX=0.5;exitY=0;exitDx=0;exitDy=0;entryX=0.5;entryY=0;entryDx=0;entryDy=0;" edge="1" parent="1" source="V7ttUtFLJmJcMLGhUj04-35" target="V7ttUtFLJmJcMLGhUj04-26">
          <mxGeometry width="50" height="50" relative="1" as="geometry">
            <mxPoint x="358" y="310" as="sourcePoint" />
            <mxPoint x="408" y="260" as="targetPoint" />
            <Array as="points">
              <mxPoint x="512" y="260" />
              <mxPoint x="243" y="260" />
            </Array>
          </mxGeometry>
        </mxCell>
        <mxCell id="V7ttUtFLJmJcMLGhUj04-38" value="" style="endArrow=classic;html=1;rounded=0;exitX=1;exitY=0.5;exitDx=0;exitDy=0;entryX=0;entryY=0.5;entryDx=0;entryDy=0;" edge="1" parent="1" source="V7ttUtFLJmJcMLGhUj04-35" target="V7ttUtFLJmJcMLGhUj04-40">
          <mxGeometry relative="1" as="geometry">
            <mxPoint x="328" y="350" as="sourcePoint" />
            <mxPoint x="428" y="350" as="targetPoint" />
          </mxGeometry>
        </mxCell>
        <mxCell id="V7ttUtFLJmJcMLGhUj04-39" value="Yes" style="edgeLabel;resizable=0;html=1;align=center;verticalAlign=middle;" connectable="0" vertex="1" parent="V7ttUtFLJmJcMLGhUj04-38">
          <mxGeometry relative="1" as="geometry" />
        </mxCell>
        <mxCell id="V7ttUtFLJmJcMLGhUj04-40" value="Add to cart" style="rounded=1;whiteSpace=wrap;html=1;" vertex="1" parent="1">
          <mxGeometry x="567" y="325" width="70" height="30" as="geometry" />
        </mxCell>
        <mxCell id="V7ttUtFLJmJcMLGhUj04-41" value="enter information" style="html=1;verticalAlign=bottom;startArrow=circle;startFill=1;endArrow=open;startSize=6;endSize=8;edgeStyle=elbowEdgeStyle;elbow=vertical;curved=0;rounded=0;" edge="1" parent="1">
          <mxGeometry x="0.0331" width="80" relative="1" as="geometry">
            <mxPoint x="209" y="44.75" as="sourcePoint" />
            <mxPoint x="320" y="44.75" as="targetPoint" />
            <mxPoint as="offset" />
          </mxGeometry>
        </mxCell>
        <mxCell id="V7ttUtFLJmJcMLGhUj04-42" style="edgeStyle=orthogonalEdgeStyle;rounded=0;orthogonalLoop=1;jettySize=auto;html=1;" edge="1" parent="1" source="V7ttUtFLJmJcMLGhUj04-43" target="V7ttUtFLJmJcMLGhUj04-44">
          <mxGeometry relative="1" as="geometry" />
        </mxCell>
        <mxCell id="V7ttUtFLJmJcMLGhUj04-43" value="search store" style="rounded=1;whiteSpace=wrap;html=1;" vertex="1" parent="1">
          <mxGeometry x="319.5" y="30" width="70" height="30" as="geometry" />
        </mxCell>
        <mxCell id="V7ttUtFLJmJcMLGhUj04-44" value="" style="rhombus;whiteSpace=wrap;html=1;" vertex="1" parent="1">
          <mxGeometry x="344.5" y="80" width="20" height="20" as="geometry" />
        </mxCell>
        <mxCell id="V7ttUtFLJmJcMLGhUj04-45" value="Notification" style="rounded=1;whiteSpace=wrap;html=1;" vertex="1" parent="1">
          <mxGeometry x="389" y="130" width="70" height="30" as="geometry" />
        </mxCell>
        <mxCell id="V7ttUtFLJmJcMLGhUj04-46" value="" style="endArrow=classic;html=1;rounded=0;exitX=0;exitY=0.5;exitDx=0;exitDy=0;entryX=0.5;entryY=0;entryDx=0;entryDy=0;" edge="1" parent="1" source="V7ttUtFLJmJcMLGhUj04-44">
          <mxGeometry relative="1" as="geometry">
            <mxPoint x="290.5" y="110" as="sourcePoint" />
            <mxPoint x="284.5" y="130.00000000000006" as="targetPoint" />
          </mxGeometry>
        </mxCell>
        <mxCell id="V7ttUtFLJmJcMLGhUj04-47" value="Yes" style="edgeLabel;resizable=0;html=1;align=center;verticalAlign=middle;" connectable="0" vertex="1" parent="V7ttUtFLJmJcMLGhUj04-46">
          <mxGeometry relative="1" as="geometry" />
        </mxCell>
        <mxCell id="V7ttUtFLJmJcMLGhUj04-48" value="" style="endArrow=classic;html=1;rounded=0;exitX=1;exitY=0.5;exitDx=0;exitDy=0;entryX=0.5;entryY=0;entryDx=0;entryDy=0;" edge="1" parent="1" source="V7ttUtFLJmJcMLGhUj04-44" target="V7ttUtFLJmJcMLGhUj04-45">
          <mxGeometry relative="1" as="geometry">
            <mxPoint x="290.5" y="110" as="sourcePoint" />
            <mxPoint x="390.5" y="110" as="targetPoint" />
          </mxGeometry>
        </mxCell>
        <mxCell id="V7ttUtFLJmJcMLGhUj04-49" value="No" style="edgeLabel;resizable=0;html=1;align=center;verticalAlign=middle;" connectable="0" vertex="1" parent="V7ttUtFLJmJcMLGhUj04-48">
          <mxGeometry relative="1" as="geometry" />
        </mxCell>
        <mxCell id="V7ttUtFLJmJcMLGhUj04-50" value="View item" style="rounded=1;whiteSpace=wrap;html=1;" vertex="1" parent="1">
          <mxGeometry x="249.5" y="130" width="70" height="30" as="geometry" />
        </mxCell>
        <mxCell id="V7ttUtFLJmJcMLGhUj04-51" value="" style="ellipse;html=1;shape=endState;fillColor=#000000;strokeColor=#ff0000;" vertex="1" parent="1">
          <mxGeometry x="658.5" y="325" width="30" height="30" as="geometry" />
        </mxCell>
        <mxCell id="V7ttUtFLJmJcMLGhUj04-52" value="" style="endArrow=classic;html=1;rounded=0;exitX=1;exitY=0.5;exitDx=0;exitDy=0;" edge="1" parent="1" source="V7ttUtFLJmJcMLGhUj04-40">
          <mxGeometry width="50" height="50" relative="1" as="geometry">
            <mxPoint x="648.5" y="390" as="sourcePoint" />
            <mxPoint x="658.5" y="340" as="targetPoint" />
          </mxGeometry>
        </mxCell>
        <mxCell id="V7ttUtFLJmJcMLGhUj04-53" value="" style="ellipse;html=1;shape=endState;fillColor=#000000;strokeColor=#ff0000;" vertex="1" parent="1">
          <mxGeometry x="339.5" y="180" width="30" height="30" as="geometry" />
        </mxCell>
        <mxCell id="V7ttUtFLJmJcMLGhUj04-54" value="" style="endArrow=classic;html=1;rounded=0;exitX=0.5;exitY=1;exitDx=0;exitDy=0;entryX=0;entryY=0;entryDx=0;entryDy=0;" edge="1" parent="1" source="V7ttUtFLJmJcMLGhUj04-50" target="V7ttUtFLJmJcMLGhUj04-53">
          <mxGeometry width="50" height="50" relative="1" as="geometry">
            <mxPoint x="420.5" y="270" as="sourcePoint" />
            <mxPoint x="470.5" y="220" as="targetPoint" />
          </mxGeometry>
        </mxCell>
        <mxCell id="V7ttUtFLJmJcMLGhUj04-55" value="" style="endArrow=classic;html=1;rounded=0;exitX=0.5;exitY=1;exitDx=0;exitDy=0;entryX=0.901;entryY=0.332;entryDx=0;entryDy=0;entryPerimeter=0;" edge="1" parent="1" source="V7ttUtFLJmJcMLGhUj04-45" target="V7ttUtFLJmJcMLGhUj04-53">
          <mxGeometry width="50" height="50" relative="1" as="geometry">
            <mxPoint x="420.5" y="270" as="sourcePoint" />
            <mxPoint x="470.5" y="220" as="targetPoint" />
          </mxGeometry>
        </mxCell>
        <mxCell id="V7ttUtFLJmJcMLGhUj04-56" value="Pay" style="html=1;verticalAlign=bottom;startArrow=circle;startFill=1;endArrow=open;startSize=6;endSize=8;edgeStyle=elbowEdgeStyle;elbow=vertical;curved=0;rounded=0;entryX=0;entryY=0.5;entryDx=0;entryDy=0;" edge="1" parent="1" target="V7ttUtFLJmJcMLGhUj04-57">
          <mxGeometry width="80" relative="1" as="geometry">
            <mxPoint x="145" y="954.75" as="sourcePoint" />
            <mxPoint x="175" y="955.25" as="targetPoint" />
            <Array as="points">
              <mxPoint x="105" y="955.25" />
            </Array>
          </mxGeometry>
        </mxCell>
        <mxCell id="V7ttUtFLJmJcMLGhUj04-57" value="&amp;nbsp;payment method" style="rounded=1;whiteSpace=wrap;html=1;" vertex="1" parent="1">
          <mxGeometry x="190" y="940" width="89" height="30" as="geometry" />
        </mxCell>
        <mxCell id="V7ttUtFLJmJcMLGhUj04-58" value="" style="endArrow=classic;html=1;rounded=0;" edge="1" parent="1">
          <mxGeometry width="50" height="50" relative="1" as="geometry">
            <mxPoint x="280" y="955" as="sourcePoint" />
            <mxPoint x="290" y="955" as="targetPoint" />
          </mxGeometry>
        </mxCell>
        <mxCell id="V7ttUtFLJmJcMLGhUj04-59" value="Payment gateways" style="rounded=1;whiteSpace=wrap;html=1;" vertex="1" parent="1">
          <mxGeometry x="330" y="890" width="70" height="30" as="geometry" />
        </mxCell>
        <mxCell id="V7ttUtFLJmJcMLGhUj04-60" value="Payment on delivery" style="rounded=1;whiteSpace=wrap;html=1;" vertex="1" parent="1">
          <mxGeometry x="330" y="990" width="70" height="30" as="geometry" />
        </mxCell>
        <mxCell id="V7ttUtFLJmJcMLGhUj04-61" value="" style="endArrow=classic;html=1;rounded=0;entryX=0;entryY=0.5;entryDx=0;entryDy=0;" edge="1" parent="1" source="V7ttUtFLJmJcMLGhUj04-97" target="V7ttUtFLJmJcMLGhUj04-59">
          <mxGeometry width="50" height="50" relative="1" as="geometry">
            <mxPoint x="309.5" y="945" as="sourcePoint" />
            <mxPoint x="330" y="960" as="targetPoint" />
            <Array as="points">
              <mxPoint x="310" y="905" />
            </Array>
          </mxGeometry>
        </mxCell>
        <mxCell id="V7ttUtFLJmJcMLGhUj04-62" value="" style="endArrow=classic;html=1;rounded=0;entryX=0;entryY=0.5;entryDx=0;entryDy=0;" edge="1" parent="1" source="V7ttUtFLJmJcMLGhUj04-97" target="V7ttUtFLJmJcMLGhUj04-60">
          <mxGeometry width="50" height="50" relative="1" as="geometry">
            <mxPoint x="309.5" y="965" as="sourcePoint" />
            <mxPoint x="330" y="960" as="targetPoint" />
            <Array as="points">
              <mxPoint x="310" y="1005" />
            </Array>
          </mxGeometry>
        </mxCell>
        <mxCell id="V7ttUtFLJmJcMLGhUj04-63" value="call center staff" style="rounded=1;whiteSpace=wrap;html=1;" vertex="1" parent="1">
          <mxGeometry x="400" y="940" width="70" height="30" as="geometry" />
        </mxCell>
        <mxCell id="V7ttUtFLJmJcMLGhUj04-64" value="" style="endArrow=classic;html=1;rounded=0;entryX=0.5;entryY=0;entryDx=0;entryDy=0;exitX=1;exitY=0.5;exitDx=0;exitDy=0;" edge="1" parent="1" source="V7ttUtFLJmJcMLGhUj04-59" target="V7ttUtFLJmJcMLGhUj04-63">
          <mxGeometry width="50" height="50" relative="1" as="geometry">
            <mxPoint x="280" y="1010" as="sourcePoint" />
            <mxPoint x="433.5" y="945" as="targetPoint" />
            <Array as="points">
              <mxPoint x="435" y="905" />
            </Array>
          </mxGeometry>
        </mxCell>
        <mxCell id="V7ttUtFLJmJcMLGhUj04-65" value="" style="endArrow=classic;html=1;rounded=0;exitX=1;exitY=0.5;exitDx=0;exitDy=0;entryX=0.5;entryY=1;entryDx=0;entryDy=0;" edge="1" parent="1" source="V7ttUtFLJmJcMLGhUj04-60" target="V7ttUtFLJmJcMLGhUj04-63">
          <mxGeometry width="50" height="50" relative="1" as="geometry">
            <mxPoint x="280" y="1010" as="sourcePoint" />
            <mxPoint x="433.5" y="965" as="targetPoint" />
            <Array as="points">
              <mxPoint x="435" y="1005" />
            </Array>
          </mxGeometry>
        </mxCell>
        <mxCell id="V7ttUtFLJmJcMLGhUj04-66" value="" style="rhombus;whiteSpace=wrap;html=1;" vertex="1" parent="1">
          <mxGeometry x="493.5" y="945" width="20" height="20" as="geometry" />
        </mxCell>
        <mxCell id="V7ttUtFLJmJcMLGhUj04-67" value="" style="endArrow=classic;html=1;rounded=0;entryX=0;entryY=0.5;entryDx=0;entryDy=0;exitX=1;exitY=0.5;exitDx=0;exitDy=0;" edge="1" parent="1" source="V7ttUtFLJmJcMLGhUj04-63" target="V7ttUtFLJmJcMLGhUj04-66">
          <mxGeometry width="50" height="50" relative="1" as="geometry">
            <mxPoint x="350" y="1000" as="sourcePoint" />
            <mxPoint x="400" y="950" as="targetPoint" />
          </mxGeometry>
        </mxCell>
        <mxCell id="V7ttUtFLJmJcMLGhUj04-68" value="" style="endArrow=classic;html=1;rounded=0;exitX=0.5;exitY=1;exitDx=0;exitDy=0;entryX=0.5;entryY=1;entryDx=0;entryDy=0;" edge="1" parent="1" source="V7ttUtFLJmJcMLGhUj04-66" target="V7ttUtFLJmJcMLGhUj04-57">
          <mxGeometry width="50" height="50" relative="1" as="geometry">
            <mxPoint x="360" y="1000" as="sourcePoint" />
            <mxPoint x="155" y="970" as="targetPoint" />
            <Array as="points">
              <mxPoint x="504" y="1030" />
              <mxPoint x="235" y="1030" />
            </Array>
          </mxGeometry>
        </mxCell>
        <mxCell id="V7ttUtFLJmJcMLGhUj04-69" value="" style="endArrow=classic;html=1;rounded=0;exitX=0.5;exitY=0;exitDx=0;exitDy=0;entryX=0.5;entryY=0;entryDx=0;entryDy=0;" edge="1" parent="1" source="V7ttUtFLJmJcMLGhUj04-66" target="V7ttUtFLJmJcMLGhUj04-57">
          <mxGeometry width="50" height="50" relative="1" as="geometry">
            <mxPoint x="360" y="1000" as="sourcePoint" />
            <mxPoint x="155" y="940" as="targetPoint" />
            <Array as="points">
              <mxPoint x="504" y="880" />
              <mxPoint x="235" y="880" />
            </Array>
          </mxGeometry>
        </mxCell>
        <mxCell id="V7ttUtFLJmJcMLGhUj04-70" value="order status" style="rounded=1;whiteSpace=wrap;html=1;" vertex="1" parent="1">
          <mxGeometry x="548.5" y="940" width="70" height="30" as="geometry" />
        </mxCell>
        <mxCell id="V7ttUtFLJmJcMLGhUj04-71" value="delivery" style="rounded=1;whiteSpace=wrap;html=1;" vertex="1" parent="1">
          <mxGeometry x="548.5" y="1010" width="70" height="30" as="geometry" />
        </mxCell>
        <mxCell id="V7ttUtFLJmJcMLGhUj04-72" value="" style="ellipse;html=1;shape=endState;fillColor=#000000;strokeColor=#ff0000;" vertex="1" parent="1">
          <mxGeometry x="719.5" y="1010" width="30" height="30" as="geometry" />
        </mxCell>
        <mxCell id="V7ttUtFLJmJcMLGhUj04-73" value="" style="endArrow=classic;html=1;rounded=0;entryX=0;entryY=0.5;entryDx=0;entryDy=0;" edge="1" parent="1" source="V7ttUtFLJmJcMLGhUj04-99" target="V7ttUtFLJmJcMLGhUj04-72">
          <mxGeometry relative="1" as="geometry">
            <mxPoint x="659.5" y="1025" as="sourcePoint" />
            <mxPoint x="689.5" y="1015" as="targetPoint" />
          </mxGeometry>
        </mxCell>
        <mxCell id="V7ttUtFLJmJcMLGhUj04-74" value="Pay" style="rounded=1;whiteSpace=wrap;html=1;" vertex="1" parent="1">
          <mxGeometry x="669.5" y="940" width="50" height="20" as="geometry" />
        </mxCell>
        <mxCell id="V7ttUtFLJmJcMLGhUj04-75" value="" style="endArrow=classic;html=1;rounded=0;exitX=0.5;exitY=0;exitDx=0;exitDy=0;entryX=0;entryY=0.5;entryDx=0;entryDy=0;" edge="1" parent="1" target="V7ttUtFLJmJcMLGhUj04-74">
          <mxGeometry width="50" height="50" relative="1" as="geometry">
            <mxPoint x="649.5" y="1015" as="sourcePoint" />
            <mxPoint x="509.5" y="965" as="targetPoint" />
            <Array as="points" />
          </mxGeometry>
        </mxCell>
        <mxCell id="V7ttUtFLJmJcMLGhUj04-76" value="" style="endArrow=classic;html=1;rounded=0;exitX=1;exitY=0.5;exitDx=0;exitDy=0;entryX=0.5;entryY=0;entryDx=0;entryDy=0;" edge="1" parent="1" source="V7ttUtFLJmJcMLGhUj04-74" target="V7ttUtFLJmJcMLGhUj04-72">
          <mxGeometry width="50" height="50" relative="1" as="geometry">
            <mxPoint x="459.5" y="1015" as="sourcePoint" />
            <mxPoint x="509.5" y="965" as="targetPoint" />
            <Array as="points">
              <mxPoint x="734.5" y="950" />
            </Array>
          </mxGeometry>
        </mxCell>
        <mxCell id="V7ttUtFLJmJcMLGhUj04-77" value="Add product to cart" style="text;html=1;strokeColor=none;fillColor=none;align=center;verticalAlign=middle;whiteSpace=wrap;rounded=0;" vertex="1" parent="1">
          <mxGeometry x="38.5" y="310" width="60" height="30" as="geometry" />
        </mxCell>
        <mxCell id="V7ttUtFLJmJcMLGhUj04-78" value="Notification" style="rounded=1;whiteSpace=wrap;html=1;" vertex="1" parent="1">
          <mxGeometry x="208" y="340" width="70" height="30" as="geometry" />
        </mxCell>
        <mxCell id="V7ttUtFLJmJcMLGhUj04-79" value="Browse store" style="rounded=1;whiteSpace=wrap;html=1;" vertex="1" parent="1">
          <mxGeometry x="208" y="390" width="70" height="30" as="geometry" />
        </mxCell>
        <mxCell id="V7ttUtFLJmJcMLGhUj04-80" value="" style="endArrow=classic;html=1;rounded=0;exitX=0.5;exitY=0;exitDx=0;exitDy=0;entryX=0;entryY=0.5;entryDx=0;entryDy=0;" edge="1" parent="1" target="V7ttUtFLJmJcMLGhUj04-26">
          <mxGeometry width="50" height="50" relative="1" as="geometry">
            <mxPoint x="163.5" y="315" as="sourcePoint" />
            <mxPoint x="438.5" y="300" as="targetPoint" />
          </mxGeometry>
        </mxCell>
        <mxCell id="V7ttUtFLJmJcMLGhUj04-81" value="" style="endArrow=classic;html=1;rounded=0;exitX=0.5;exitY=1;exitDx=0;exitDy=0;entryX=0;entryY=0.5;entryDx=0;entryDy=0;" edge="1" parent="1" target="V7ttUtFLJmJcMLGhUj04-79">
          <mxGeometry width="50" height="50" relative="1" as="geometry">
            <mxPoint x="163.5" y="335" as="sourcePoint" />
            <mxPoint x="438.5" y="300" as="targetPoint" />
          </mxGeometry>
        </mxCell>
        <mxCell id="V7ttUtFLJmJcMLGhUj04-82" value="" style="endArrow=classic;html=1;rounded=0;exitX=1;exitY=0.5;exitDx=0;exitDy=0;entryX=0.5;entryY=1;entryDx=0;entryDy=0;" edge="1" parent="1" source="V7ttUtFLJmJcMLGhUj04-79" target="V7ttUtFLJmJcMLGhUj04-34">
          <mxGeometry width="50" height="50" relative="1" as="geometry">
            <mxPoint x="388.5" y="350" as="sourcePoint" />
            <mxPoint x="373.5" y="350" as="targetPoint" />
            <Array as="points">
              <mxPoint x="432.5" y="405" />
            </Array>
          </mxGeometry>
        </mxCell>
        <mxCell id="V7ttUtFLJmJcMLGhUj04-83" value="" style="endArrow=classic;html=1;rounded=0;exitX=0.5;exitY=1;exitDx=0;exitDy=0;entryX=0.5;entryY=1;entryDx=0;entryDy=0;" edge="1" parent="1" source="V7ttUtFLJmJcMLGhUj04-35" target="V7ttUtFLJmJcMLGhUj04-79">
          <mxGeometry width="50" height="50" relative="1" as="geometry">
            <mxPoint x="368.5" y="360" as="sourcePoint" />
            <mxPoint x="418.5" y="310" as="targetPoint" />
            <Array as="points">
              <mxPoint x="512.5" y="430" />
              <mxPoint x="258.5" y="430" />
            </Array>
          </mxGeometry>
        </mxCell>
        <mxCell id="V7ttUtFLJmJcMLGhUj04-84" style="edgeStyle=orthogonalEdgeStyle;rounded=0;orthogonalLoop=1;jettySize=auto;html=1;entryX=0.5;entryY=1;entryDx=0;entryDy=0;" edge="1" parent="1" source="V7ttUtFLJmJcMLGhUj04-85" target="V7ttUtFLJmJcMLGhUj04-1">
          <mxGeometry relative="1" as="geometry" />
        </mxCell>
        <mxCell id="V7ttUtFLJmJcMLGhUj04-85" value="Notification" style="rounded=1;whiteSpace=wrap;html=1;" vertex="1" parent="1">
          <mxGeometry x="209" y="565" width="70" height="30" as="geometry" />
        </mxCell>
        <mxCell id="V7ttUtFLJmJcMLGhUj04-86" value="" style="endArrow=classic;html=1;rounded=0;entryX=0;entryY=0.5;entryDx=0;entryDy=0;" edge="1" parent="1" target="V7ttUtFLJmJcMLGhUj04-5">
          <mxGeometry width="50" height="50" relative="1" as="geometry">
            <mxPoint x="280" y="525" as="sourcePoint" />
            <mxPoint x="470" y="380" as="targetPoint" />
          </mxGeometry>
        </mxCell>
        <mxCell id="V7ttUtFLJmJcMLGhUj04-87" value="" style="endArrow=classic;html=1;rounded=0;exitX=0.5;exitY=1;exitDx=0;exitDy=0;" edge="1" parent="1" source="V7ttUtFLJmJcMLGhUj04-5">
          <mxGeometry width="50" height="50" relative="1" as="geometry">
            <mxPoint x="420" y="510" as="sourcePoint" />
            <mxPoint x="280" y="580" as="targetPoint" />
            <Array as="points">
              <mxPoint x="320" y="580" />
            </Array>
          </mxGeometry>
        </mxCell>
        <mxCell id="V7ttUtFLJmJcMLGhUj04-88" value="" style="endArrow=classic;html=1;rounded=0;exitX=0.5;exitY=1;exitDx=0;exitDy=0;" edge="1" parent="1" source="V7ttUtFLJmJcMLGhUj04-21" target="V7ttUtFLJmJcMLGhUj04-108">
          <mxGeometry width="50" height="50" relative="1" as="geometry">
            <mxPoint x="420" y="680" as="sourcePoint" />
            <mxPoint x="649" y="575" as="targetPoint" />
            <Array as="points">
              <mxPoint x="614" y="560" />
              <mxPoint x="649" y="560" />
            </Array>
          </mxGeometry>
        </mxCell>
        <mxCell id="V7ttUtFLJmJcMLGhUj04-89" value="" style="endArrow=classic;html=1;rounded=0;exitX=0.5;exitY=1;exitDx=0;exitDy=0;entryX=1;entryY=0.5;entryDx=0;entryDy=0;" edge="1" parent="1" source="V7ttUtFLJmJcMLGhUj04-24">
          <mxGeometry width="50" height="50" relative="1" as="geometry">
            <mxPoint x="420" y="680" as="sourcePoint" />
            <mxPoint x="659" y="585" as="targetPoint" />
            <Array as="points">
              <mxPoint x="694" y="560" />
              <mxPoint x="659" y="560" />
            </Array>
          </mxGeometry>
        </mxCell>
        <mxCell id="V7ttUtFLJmJcMLGhUj04-90" value="" style="endArrow=classic;html=1;rounded=0;entryX=0;entryY=0.5;entryDx=0;entryDy=0;exitX=1;exitY=0.5;exitDx=0;exitDy=0;" edge="1" parent="1" source="V7ttUtFLJmJcMLGhUj04-12" target="V7ttUtFLJmJcMLGhUj04-14">
          <mxGeometry width="50" height="50" relative="1" as="geometry">
            <mxPoint x="420" y="680" as="sourcePoint" />
            <mxPoint x="470" y="630" as="targetPoint" />
          </mxGeometry>
        </mxCell>
        <mxCell id="V7ttUtFLJmJcMLGhUj04-91" value="" style="endArrow=classic;html=1;rounded=0;exitX=0.5;exitY=1;exitDx=0;exitDy=0;entryX=0.5;entryY=0;entryDx=0;entryDy=0;" edge="1" parent="1" target="V7ttUtFLJmJcMLGhUj04-14">
          <mxGeometry width="50" height="50" relative="1" as="geometry">
            <mxPoint x="653.5" y="595" as="sourcePoint" />
            <mxPoint x="474.5" y="630" as="targetPoint" />
          </mxGeometry>
        </mxCell>
        <mxCell id="V7ttUtFLJmJcMLGhUj04-92" value="" style="endArrow=classic;html=1;rounded=0;exitX=0.5;exitY=1;exitDx=0;exitDy=0;entryX=0.5;entryY=0;entryDx=0;entryDy=0;" edge="1" parent="1" source="V7ttUtFLJmJcMLGhUj04-14" target="V7ttUtFLJmJcMLGhUj04-15">
          <mxGeometry width="50" height="50" relative="1" as="geometry">
            <mxPoint x="424.5" y="680" as="sourcePoint" />
            <mxPoint x="474.5" y="630" as="targetPoint" />
          </mxGeometry>
        </mxCell>
        <mxCell id="V7ttUtFLJmJcMLGhUj04-93" value="" style="endArrow=classic;html=1;rounded=0;exitX=0.5;exitY=1;exitDx=0;exitDy=0;entryX=0.5;entryY=0;entryDx=0;entryDy=0;" edge="1" parent="1" source="V7ttUtFLJmJcMLGhUj04-15" target="V7ttUtFLJmJcMLGhUj04-19">
          <mxGeometry width="50" height="50" relative="1" as="geometry">
            <mxPoint x="424.5" y="680" as="sourcePoint" />
            <mxPoint x="474.5" y="630" as="targetPoint" />
          </mxGeometry>
        </mxCell>
        <mxCell id="V7ttUtFLJmJcMLGhUj04-94" value="" style="endArrow=classic;html=1;rounded=0;exitX=0.5;exitY=1;exitDx=0;exitDy=0;" edge="1" parent="1" source="V7ttUtFLJmJcMLGhUj04-19" target="V7ttUtFLJmJcMLGhUj04-16">
          <mxGeometry width="50" height="50" relative="1" as="geometry">
            <mxPoint x="424.5" y="680" as="sourcePoint" />
            <mxPoint x="474.5" y="630" as="targetPoint" />
          </mxGeometry>
        </mxCell>
        <mxCell id="V7ttUtFLJmJcMLGhUj04-95" value="" style="endArrow=classic;html=1;rounded=0;exitX=0.5;exitY=1;exitDx=0;exitDy=0;entryX=0.5;entryY=0;entryDx=0;entryDy=0;" edge="1" parent="1" source="V7ttUtFLJmJcMLGhUj04-70" target="V7ttUtFLJmJcMLGhUj04-71">
          <mxGeometry width="50" height="50" relative="1" as="geometry">
            <mxPoint x="429.5" y="980" as="sourcePoint" />
            <mxPoint x="479.5" y="930" as="targetPoint" />
          </mxGeometry>
        </mxCell>
        <mxCell id="V7ttUtFLJmJcMLGhUj04-96" value="" style="endArrow=classic;html=1;rounded=0;exitX=1;exitY=0.5;exitDx=0;exitDy=0;entryX=0;entryY=0.5;entryDx=0;entryDy=0;" edge="1" parent="1" source="V7ttUtFLJmJcMLGhUj04-71">
          <mxGeometry width="50" height="50" relative="1" as="geometry">
            <mxPoint x="429.5" y="980" as="sourcePoint" />
            <mxPoint x="639.5" y="1025" as="targetPoint" />
          </mxGeometry>
        </mxCell>
        <mxCell id="V7ttUtFLJmJcMLGhUj04-97" value="" style="html=1;points=[];perimeter=orthogonalPerimeter;outlineConnect=0;targetShapes=umlLifeline;portConstraint=eastwest;newEdgeStyle={&quot;edgeStyle&quot;:&quot;elbowEdgeStyle&quot;,&quot;elbow&quot;:&quot;vertical&quot;,&quot;curved&quot;:0,&quot;rounded&quot;:0};" vertex="1" parent="1">
          <mxGeometry x="290" y="935" width="10" height="40" as="geometry" />
        </mxCell>
        <mxCell id="V7ttUtFLJmJcMLGhUj04-98" value="" style="endArrow=classic;html=1;rounded=0;exitX=1;exitY=0.5;exitDx=0;exitDy=0;entryX=0;entryY=0.5;entryDx=0;entryDy=0;" edge="1" parent="1" source="V7ttUtFLJmJcMLGhUj04-66" target="V7ttUtFLJmJcMLGhUj04-70">
          <mxGeometry width="50" height="50" relative="1" as="geometry">
            <mxPoint x="580" y="1040" as="sourcePoint" />
            <mxPoint x="630" y="990" as="targetPoint" />
          </mxGeometry>
        </mxCell>
        <mxCell id="V7ttUtFLJmJcMLGhUj04-99" value="" style="html=1;points=[];perimeter=orthogonalPerimeter;outlineConnect=0;targetShapes=umlLifeline;portConstraint=eastwest;newEdgeStyle={&quot;edgeStyle&quot;:&quot;elbowEdgeStyle&quot;,&quot;elbow&quot;:&quot;vertical&quot;,&quot;curved&quot;:0,&quot;rounded&quot;:0};" vertex="1" parent="1">
          <mxGeometry x="639" y="1005" width="10" height="40" as="geometry" />
        </mxCell>
        <mxCell id="V7ttUtFLJmJcMLGhUj04-100" value="" style="html=1;points=[];perimeter=orthogonalPerimeter;outlineConnect=0;targetShapes=umlLifeline;portConstraint=eastwest;newEdgeStyle={&quot;edgeStyle&quot;:&quot;elbowEdgeStyle&quot;,&quot;elbow&quot;:&quot;vertical&quot;,&quot;curved&quot;:0,&quot;rounded&quot;:0};" vertex="1" parent="1">
          <mxGeometry x="153.5" y="305" width="10" height="40" as="geometry" />
        </mxCell>
        <mxCell id="V7ttUtFLJmJcMLGhUj04-101" value="" style="html=1;verticalAlign=bottom;startArrow=circle;startFill=1;endArrow=open;startSize=6;endSize=8;edgeStyle=elbowEdgeStyle;elbow=vertical;curved=0;rounded=0;" edge="1" parent="1" target="V7ttUtFLJmJcMLGhUj04-102">
          <mxGeometry width="80" relative="1" as="geometry">
            <mxPoint x="109" y="580" as="sourcePoint" />
            <mxPoint x="159" y="580" as="targetPoint" />
          </mxGeometry>
        </mxCell>
        <mxCell id="V7ttUtFLJmJcMLGhUj04-102" value="" style="html=1;points=[];perimeter=orthogonalPerimeter;outlineConnect=0;targetShapes=umlLifeline;portConstraint=eastwest;newEdgeStyle={&quot;edgeStyle&quot;:&quot;elbowEdgeStyle&quot;,&quot;elbow&quot;:&quot;vertical&quot;,&quot;curved&quot;:0,&quot;rounded&quot;:0};" vertex="1" parent="1">
          <mxGeometry x="155" y="555" width="10" height="40" as="geometry" />
        </mxCell>
        <mxCell id="V7ttUtFLJmJcMLGhUj04-103" value="" style="endArrow=classic;html=1;rounded=0;entryX=0;entryY=0.5;entryDx=0;entryDy=0;" edge="1" parent="1" source="V7ttUtFLJmJcMLGhUj04-102" target="V7ttUtFLJmJcMLGhUj04-1">
          <mxGeometry width="50" height="50" relative="1" as="geometry">
            <mxPoint x="410" y="680" as="sourcePoint" />
            <mxPoint x="460" y="630" as="targetPoint" />
          </mxGeometry>
        </mxCell>
        <mxCell id="V7ttUtFLJmJcMLGhUj04-104" value="" style="endArrow=classic;html=1;rounded=0;entryX=0;entryY=0.5;entryDx=0;entryDy=0;" edge="1" parent="1" source="V7ttUtFLJmJcMLGhUj04-102" target="V7ttUtFLJmJcMLGhUj04-2">
          <mxGeometry width="50" height="50" relative="1" as="geometry">
            <mxPoint x="410" y="680" as="sourcePoint" />
            <mxPoint x="460" y="630" as="targetPoint" />
          </mxGeometry>
        </mxCell>
        <mxCell id="V7ttUtFLJmJcMLGhUj04-105" value="" style="html=1;points=[];perimeter=orthogonalPerimeter;outlineConnect=0;targetShapes=umlLifeline;portConstraint=eastwest;newEdgeStyle={&quot;edgeStyle&quot;:&quot;elbowEdgeStyle&quot;,&quot;elbow&quot;:&quot;vertical&quot;,&quot;curved&quot;:0,&quot;rounded&quot;:0};" vertex="1" parent="1">
          <mxGeometry x="469" y="560" width="10" height="40" as="geometry" />
        </mxCell>
        <mxCell id="V7ttUtFLJmJcMLGhUj04-106" value="" style="endArrow=classic;html=1;rounded=0;entryX=0;entryY=0.75;entryDx=0;entryDy=0;" edge="1" parent="1" target="V7ttUtFLJmJcMLGhUj04-13">
          <mxGeometry width="50" height="50" relative="1" as="geometry">
            <mxPoint x="480" y="560" as="sourcePoint" />
            <mxPoint x="510" y="660" as="targetPoint" />
          </mxGeometry>
        </mxCell>
        <mxCell id="V7ttUtFLJmJcMLGhUj04-107" value="" style="endArrow=classic;html=1;rounded=0;" edge="1" parent="1" source="V7ttUtFLJmJcMLGhUj04-105">
          <mxGeometry width="50" height="50" relative="1" as="geometry">
            <mxPoint x="460" y="710" as="sourcePoint" />
            <mxPoint x="500" y="630" as="targetPoint" />
          </mxGeometry>
        </mxCell>
        <mxCell id="V7ttUtFLJmJcMLGhUj04-108" value="" style="html=1;points=[];perimeter=orthogonalPerimeter;outlineConnect=0;targetShapes=umlLifeline;portConstraint=eastwest;newEdgeStyle={&quot;edgeStyle&quot;:&quot;elbowEdgeStyle&quot;,&quot;elbow&quot;:&quot;vertical&quot;,&quot;curved&quot;:0,&quot;rounded&quot;:0};rotation=-90;" vertex="1" parent="1">
          <mxGeometry x="650" y="570" width="10" height="40" as="geometry" />
        </mxCell>
        <mxCell id="V7ttUtFLJmJcMLGhUj04-109" value="" style="endArrow=classic;html=1;rounded=0;exitX=1;exitY=0.5;exitDx=0;exitDy=0;" edge="1" parent="1" source="V7ttUtFLJmJcMLGhUj04-9" target="V7ttUtFLJmJcMLGhUj04-105">
          <mxGeometry width="50" height="50" relative="1" as="geometry">
            <mxPoint x="460" y="710" as="sourcePoint" />
            <mxPoint x="510" y="660" as="targetPoint" />
          </mxGeometry>
        </mxCell>
        <mxCell id="V7ttUtFLJmJcMLGhUj04-110" value="Oders" style="text;html=1;strokeColor=none;fillColor=none;align=center;verticalAlign=middle;whiteSpace=wrap;rounded=0;" vertex="1" parent="1">
          <mxGeometry x="60" y="565" width="60" height="30" as="geometry" />
        </mxCell>
      </root>
    </mxGraphModel>
  </diagram>
</mxfile>
